<?xml version="1.0" standalone="no"?>
<!DOCTYPE svg PUBLIC "-//W3C//DTD SVG 20010904//EN"
 "http://www.w3.org/TR/2001/REC-SVG-20010904/DTD/svg10.dtd">
<svg version="1.0" xmlns="http://www.w3.org/2000/svg"
 width="350.000000pt" height="350.000000pt" viewBox="0 0 350.000000 350.000000"
 preserveAspectRatio="xMidYMid meet">
<metadata>
Created by potrace 1.14, written by Peter Selinger 2001-2017
</metadata>
<g transform="translate(0.000000,350.000000) scale(0.100000,-0.100000)"
fill="#000000" stroke="none">
<path d="M1388 3393 l-1138 -3 0 -1645 0 -1645 1408 0 1407 0 88 88 87 87 0
198 0 197 -1137 2 -1138 3 -3 1066 -2 1066 322 6 c178 4 652 7 1054 7 402 0
772 3 822 6 l92 7 0 206 0 206 -78 78 -77 77 -285 -2 c-157 -2 -797 -4 -1422
-5z"/>
<path d="M1460 1737 l0 -237 608 0 c334 0 637 -3 675 -7 l67 -6 0 237 0 236
-292 0 c-161 0 -465 3 -675 7 l-383 6 0 -236z"/>
</g>
</svg>
